<?xml version="1.0" encoding="UTF-8" standalone="no"?>
<svg
   xmlns:dc="http://purl.org/dc/elements/1.1/"
   xmlns:cc="http://creativecommons.org/ns#"
   xmlns:rdf="http://www.w3.org/1999/02/22-rdf-syntax-ns#"
   xmlns:svg="http://www.w3.org/2000/svg"
   xmlns="http://www.w3.org/2000/svg"
   viewBox="0 0 400 400"
   height="400"
   width="400"
   xml:space="preserve"
   id="svg2"
   version="1.1"><metadata
     id="metadata8"><rdf:RDF><cc:Work
         rdf:about=""><dc:format>image/svg+xml</dc:format><dc:type
           rdf:resource="http://purl.org/dc/dcmitype/StillImage" /></cc:Work></rdf:RDF></metadata><defs
     id="defs6"><clipPath
       id="clipPath20"
       clipPathUnits="userSpaceOnUse"><path
         id="path18"
         d="M 3000,1500 C 3000,671.57 2328.43,0 1500,0 671.574,0 0,671.57 0,1500 c 0,828.43 671.574,1500 1500,1500 828.43,0 1500,-671.57 1500,-1500 z" /></clipPath><clipPath
       id="clipPath34"
       clipPathUnits="userSpaceOnUse"><path
         id="path32"
         d="M 3000,1500 C 3000,671.57 2328.43,0 1500,0 671.574,0 0,671.57 0,1500 c 0,828.43 671.574,1500 1500,1500 828.43,0 1500,-671.57 1500,-1500 z" /></clipPath><clipPath
       id="clipPath40"
       clipPathUnits="userSpaceOnUse"><path
         id="path38"
         d="m 1500,2250 c 414.21,0 750,-335.79 750,-750 0,-414.21 -335.79,-750 -750,-750 -414.21,0 -750,335.79 -750,750 0,414.21 335.79,750 750,750 z" /></clipPath><clipPath
       id="clipPath50"
       clipPathUnits="userSpaceOnUse"><path
         id="path48"
         d="M 3000,1500 C 3000,671.57 2328.43,0 1500,0 671.574,0 0,671.57 0,1500 c 0,828.43 671.574,1500 1500,1500 828.43,0 1500,-671.57 1500,-1500 z" /></clipPath></defs><g
     transform="matrix(1.3333333,0,0,-1.3333333,0,400)"
     id="g10"><g
       transform="scale(0.1)"
       id="g12"><g
         id="g14"><g
           clip-path="url(#clipPath20)"
           id="g16"><path
             id="path22"
             style="fill:#2c9f41;fill-opacity:1;fill-rule:nonzero;stroke:none"
             d="M -642.855,3000 H 3642.86 V 0 H -642.855 v 3000" /><path
             id="path24"
             style="fill:#f8e005;fill-opacity:1;fill-rule:nonzero;stroke:none"
             d="M -278.57,1500 1500,364.289 3278.58,1500 1500,2635.71 -278.57,1500" /><path
             id="path26"
             style="fill:#26326f;fill-opacity:1;fill-rule:nonzero;stroke:none"
             d="m 1500,2250 c 414.21,0 750,-335.79 750,-750 0,-414.21 -335.79,-750 -750,-750 -414.21,0 -750,335.79 -750,750 0,414.21 335.79,750 750,750" /></g></g><g
         id="g28"><g
           clip-path="url(#clipPath34)"
           id="g30"><g
             clip-path="url(#clipPath40)"
             id="g36"><path
               id="path42"
               style="fill:#ffffff;fill-opacity:1;fill-rule:nonzero;stroke:none"
               d="m -750,0 c 0,1005.95 815.4805,1821.43 1821.43,1821.43 1005.95,0 1821.43,-815.48 1821.43,-1821.43 h -107.15 c 0,946.781 -767.5,1714.29 -1714.28,1714.29 C 124.656,1714.29 -642.855,946.781 -642.855,0 H -750" /></g></g></g><g
         id="g44"><g
           clip-path="url(#clipPath50)"
           id="g46"><path
             id="path52"
             style="fill:#2c9f41;fill-opacity:1;fill-rule:nonzero;stroke:none"
             d="m 1099.76,1732.21 64.24,-2.24 0.47,13.25 -52.01,1.82 0.64,18.36 40.79,-1.43 0.43,12.24 -40.79,1.42 0.5,14.28 48.95,-1.71 0.46,13.26 -61.19,2.13 -2.49,-71.38" /><path
             id="path54"
             style="fill:#2c9f41;fill-opacity:1;fill-rule:nonzero;stroke:none"
             d="m 1190.38,1728.35 12.19,-1.06 4.28,48.79 9.96,-50.04 11.18,-0.98 18.5,47.55 -4.27,-48.79 12.2,-1.07 6.22,71.16 -17.78,1.55 -18.51,-47.54 -9.96,50.03 -17.79,1.56 -6.22,-71.16" /><path
             id="path56"
             style="fill:#2c9f41;fill-opacity:1;fill-rule:nonzero;stroke:none"
             d="m 1338.37,1711.66 52.8,-9.07 2.07,12.07 -40.73,7 2.77,16.09 33.18,-5.71 2.08,12.07 -33.19,5.7 1.9,11.07 39.47,-6.79 2.08,12.07 -51.55,8.86 -10.88,-63.36" /><path
             id="path58"
             style="fill:#2c9f41;fill-opacity:1;fill-rule:nonzero;stroke:none"
             d="m 1781.04,1619.2 24.8,-10.78 -4.07,-9.36 -24.8,10.78 4.07,9.36" /><path
             id="path60"
             style="fill:#2c9f41;fill-opacity:1;fill-rule:nonzero;stroke:none"
             d="m 1796.48,1612.49 9.36,-4.07 -14.24,-32.76 -9.36,4.07 14.24,32.76" /><path
             id="path62"
             style="fill:#2c9f41;fill-opacity:1;fill-rule:nonzero;stroke:none"
             d="m 2000.62,1488.44 c -3.84,-6.02 0.05,-12.74 8.66,-18.21 8.6,-5.49 14.47,-5.29 16.94,-1.42 7.81,12.26 -37.36,30.14 -23.44,51.52 12.01,18.37 32.55,4.08 40.29,-0.86 7.75,-4.93 20.19,-17.7 10.51,-32.4 l -13.12,8.36 c 4.11,6.45 -0.41,12.66 -7.29,17.04 -6.67,4.25 -12.09,6.19 -16.07,-0.05 -6.65,-9.97 37.62,-28.8 24.04,-50.1 -10,-15.71 -27.41,-8.85 -39.03,-1.45 -9.9,6.31 -24.69,21.17 -15.05,36.21 l 13.56,-8.64" /><path
             id="path64"
             style="fill:#2c9f41;fill-opacity:1;fill-rule:nonzero;stroke:none"
             d="m 1896.4,1523.41 55.95,-31.66 6.54,11.55 -45.3,25.63 9.05,15.98 35.52,-20.1 6.03,10.66 -35.53,20.1 7.04,12.43 42.63,-24.12 6.53,11.55 -53.28,30.15 -35.18,-62.17" /><path
             id="path66"
             style="fill:#2c9f41;fill-opacity:1;fill-rule:nonzero;stroke:none"
             d="m 2077.24,1437.77 c -4.14,-5.82 -0.61,-12.72 7.7,-18.64 8.3,-5.93 14.17,-6.04 16.84,-2.31 8.44,11.84 -35.72,32.07 -20.7,52.69 12.94,17.71 32.71,2.36 40.18,-2.97 7.48,-5.34 19.23,-18.73 8.8,-32.91 l -12.67,9.03 c 4.45,6.23 0.26,12.66 -6.38,17.41 -6.44,4.59 -11.75,6.81 -16.05,0.79 -7.17,-9.62 36.05,-30.73 21.38,-51.3 -10.81,-15.16 -27.83,-7.4 -39.05,0.61 -9.55,6.81 -23.54,22.42 -13.13,36.93 l 13.08,-9.33" /><path
             id="path68"
             style="fill:#2c9f41;fill-opacity:1;fill-rule:nonzero;stroke:none"
             d="m 855.984,1776.41 c 24.278,0 24.278,-43.52 0,-43.52 -24.277,0 -24.277,43.52 0,43.52 z m 31.903,-17.81 c -2.407,19.57 -18.637,33.69 -36.254,31.53 -17.617,-2.17 -29.953,-19.79 -27.555,-39.37 2.406,-19.58 18.637,-33.69 36.258,-31.53 17.617,2.16 29.953,19.79 27.551,39.37" /><path
             id="path70"
             style="fill:#2c9f41;fill-opacity:1;fill-rule:nonzero;stroke:none"
             d="m 2187.7,1399.73 c 20.04,-13.71 -4.55,-49.63 -24.58,-35.91 -20.04,13.7 4.55,49.62 24.58,35.91 z m 16.27,-32.72 c 9.07,17.51 3.65,38.33 -12.11,46.49 -15.76,8.17 -35.9,0.59 -44.97,-16.92 -9.07,-17.51 -3.65,-38.33 12.11,-46.49 15.76,-8.17 35.89,-0.59 44.97,16.92" /><path
             id="path72"
             style="fill:#2c9f41;fill-opacity:1;fill-rule:nonzero;stroke:none"
             d="m 1038.13,1744.88 c -5.48,0.01 -16.04,-0.07 -16.04,-0.07 0,0 -0.63,36.07 -0.78,44.89 14.78,0.2 15.28,0.2 21.01,0.2 10.6,-0.19 15.06,-8.09 17.3,-13.21 0.8,-5.69 0.84,-8 1.02,-12.93 -0.65,-5.3 -2.23,-9.67 -6.7,-13.85 -7.34,-4.93 -11.06,-5.03 -15.81,-5.03 z m 29.14,45.14 c -7.87,12.67 -23.74,13.27 -23.74,13.27 l -35.71,-0.56 1.24,-71.41 c 0,0 28.33,-0.01 35.86,0.7 7.52,0.72 16.37,5.05 22.15,12.65 5.77,7.59 5.71,16.59 5.67,22.11 -0.04,5.52 0.83,13.07 -5.47,23.24" /><path
             id="path74"
             style="fill:#2c9f41;fill-opacity:1;fill-rule:nonzero;stroke:none"
             d="m 961.684,1770.18 c -2.793,-2.32 -10.606,-2.42 -10.606,-2.42 l -22.082,-1.45 c 0,0 -0.871,12.45 -1.285,18.32 3.352,-0.03 20.91,1.45 21.23,1.46 3.539,0.11 7.532,0.46 7.532,0.46 0,0 2.882,-0.09 5.765,-2.6 0.555,-0.37 2.977,-2.51 2.883,-6.14 -0.09,-3.63 -2.168,-6.92 -3.437,-7.63 z m 8.027,-11.1 c 0,0 7.469,6.32 9.391,15.36 1.925,9.04 -3.672,16.43 -6.043,18.55 -2.371,2.12 -7.36,7.13 -14.727,6.85 -7.367,-0.29 -43.758,-2.83 -43.758,-2.83 l 3.965,-71.33 13.231,0.93 -1.848,26.46 22.973,1.61 5.527,0.39 c 0,0 7.109,-11.64 7.789,-18.83 0.457,-4.23 0.394,-7.82 0.394,-7.82 h 12.891 c 0,0 0.328,12.71 -3.344,20.31 -3.672,7.61 -6.441,10.35 -6.441,10.35" /><path
             id="path76"
             style="fill:#2c9f41;fill-opacity:1;fill-rule:nonzero;stroke:none"
             d="m 1697.88,1675.87 c 23.46,-6.23 12.3,-48.3 -11.17,-42.07 -23.46,6.23 -12.29,48.3 11.17,42.07 z m 26.26,-25.41 c 2.7,19.54 -9.36,37.35 -26.94,39.78 -17.59,2.43 -34.03,-11.44 -36.74,-30.98 -2.69,-19.54 9.37,-37.35 26.95,-39.78 17.59,-2.43 34.03,11.44 36.73,30.98" /><path
             id="path78"
             style="fill:#2c9f41;fill-opacity:1;fill-rule:nonzero;stroke:none"
             d="m 1617.55,1691.29 c -3.4,-1.29 -10.81,1.18 -10.81,1.18 l -21.35,5.84 c 0,0 3.24,12.06 4.78,17.73 3.15,-1.12 20.23,-5.46 20.54,-5.56 3.37,-1.05 7.26,-2.02 7.26,-2.02 0,0 2.7,-1.03 4.61,-4.35 0.4,-0.53 1.98,-3.35 0.71,-6.74 -1.27,-3.4 -4.31,-5.84 -5.74,-6.08 z m 3.96,-13.12 c 0,0 9.12,3.53 13.89,11.45 4.78,7.91 1.91,16.73 0.35,19.5 -1.54,2.78 -4.61,9.14 -11.67,11.28 -7.06,2.15 -42.28,11.64 -42.28,11.64 l -19.58,-68.7 12.81,-3.45 6.9,25.61 22.24,-5.99 5.35,-1.44 c 0,0 2.91,-13.33 1.21,-20.34 -0.95,-4.14 -2.18,-7.52 -2.18,-7.52 l 12.18,-4.22 c 0,0 4.46,11.91 3.49,20.29 -1,8.39 -2.71,11.89 -2.71,11.89" /><path
             id="path80"
             style="fill:#2c9f41;fill-opacity:1;fill-rule:nonzero;stroke:none"
             d="m 1878.1,1586.45 c -3.49,-0.99 -10.67,2.1 -10.67,2.1 l -20.77,7.63 c 0,0 4.26,11.74 6.26,17.27 3.05,-1.39 19.71,-7.17 20,-7.29 3.28,-1.33 7.07,-2.63 7.07,-2.63 0,0 2.6,-1.26 4.22,-4.72 0.35,-0.56 1.69,-3.51 0.14,-6.78 -1.56,-3.28 -4.79,-5.45 -6.25,-5.58 z m 2.84,-13.4 c 0,0 9.39,2.75 14.82,10.22 5.42,7.49 3.31,16.51 2,19.41 -1.3,2.9 -3.82,9.5 -10.67,12.24 -6.86,2.73 -41.14,15.18 -41.14,15.18 l -25.34,-66.8 12.47,-4.53 9.05,24.94 21.65,-7.85 5.2,-1.9 c 0,0 1.78,-13.52 -0.51,-20.36 -1.3,-4.05 -2.82,-7.31 -2.82,-7.31 l 11.78,-5.23 c 0,0 5.46,11.48 5.2,19.91 -0.28,8.45 -1.69,12.08 -1.69,12.08" /><path
             id="path82"
             style="fill:#2c9f41;fill-opacity:1;fill-rule:nonzero;stroke:none"
             d="m 1529.35,1715.03 c -3.35,-1.37 -10.83,0.92 -10.83,0.92 l -21.48,5.33 c 0,0 2.95,12.13 4.35,17.84 3.18,-1.04 20.36,-4.98 20.66,-5.06 3.42,-0.98 7.32,-1.86 7.32,-1.86 0,0 2.72,-0.96 4.7,-4.23 0.42,-0.52 2.07,-3.3 0.88,-6.72 -1.19,-3.43 -4.17,-5.94 -5.6,-6.22 z m 4.28,-13.02 c 0,0 9.04,3.75 13.62,11.78 4.58,8.02 1.49,16.77 -0.12,19.51 -1.62,2.73 -4.84,9.02 -11.94,10.99 -7.11,1.98 -42.55,10.62 -42.55,10.62 l -17.93,-69.15 12.89,-3.14 6.29,25.77 22.37,-5.46 5.39,-1.31" /><path
             id="path84"
             style="fill:#2c9f41;fill-opacity:1;fill-rule:nonzero;stroke:none"
             d="m 1799.31,1611.75 c -1.84,0.81 -3.76,1.39 -5.68,1.99 -5.58,-10.54 -17.95,-18.04 -28.97,-10.49 -20.04,13.71 4.55,49.63 24.58,35.92 4.84,-3.31 7.02,-7.92 7.36,-12.81 3.02,-1.29 6.3,-1.88 9.34,-3.28 1.28,-0.58 2.54,-1.19 3.82,-1.77 1.02,13.14 -4.93,25.71 -16.36,31.63 -15.76,8.17 -35.9,0.59 -44.97,-16.92 -9.07,-17.52 -3.65,-38.33 12.11,-46.5 15.76,-8.17 35.89,-0.59 44.97,16.92 0.36,0.7 0.65,1.41 0.97,2.11 -2.4,1.05 -4.77,2.14 -7.17,3.2" /><path
             id="path86"
             style="fill:#ffffff;fill-opacity:1;fill-rule:nonzero;stroke:none"
             d="m 1760.78,1742.41 -15.88,-11.53 6.07,-18.66 -15.87,11.53 -15.87,-11.53 6.06,18.66 -15.87,11.53 h 19.62 l 6.06,18.65 6.06,-18.65 h 19.62" /><path
             id="path88"
             style="fill:#ffffff;fill-opacity:1;fill-rule:nonzero;stroke:none"
             d="m 857.188,1644.63 18.89,-13.73 -7.215,-22.21 18.895,13.72 18.894,-13.72 -7.218,22.21 18.894,13.73 h -23.355 l -7.215,22.21 -7.215,-22.21 h -23.355" /><path
             id="path90"
             style="fill:#ffffff;fill-opacity:1;fill-rule:nonzero;stroke:none"
             d="m 1684.22,1544.39 13.07,-9.5 -4.99,-15.37 13.07,9.5 13.08,-9.5 -5,15.37 13.08,9.5 h -16.16 l -5,15.37 -4.92,-15.37 h -16.23" /><path
             id="path92"
             style="fill:#ffffff;fill-opacity:1;fill-rule:nonzero;stroke:none"
             d="m 1014.07,1368.43 8.01,-5.61 -3.09,-9.51 7.95,5.77 7.95,-5.77 -3.04,9.34 7.96,5.78 h -9.84 l -3.03,9.35 -3.04,-9.35 h -9.83" /><path
             id="path94"
             style="fill:#ffffff;fill-opacity:1;fill-rule:nonzero;stroke:none"
             d="m 953.961,1351.53 -7.109,-22.21 h -23.336 l 18.89,-13.72 -7.215,-22.22 18.895,13.73 18.891,-13.73 -7.219,22.22 18.894,13.72 h -23.351 l -7.215,22.21" /><path
             id="path96"
             style="fill:#ffffff;fill-opacity:1;fill-rule:nonzero;stroke:none"
             d="m 836.773,1260.32 15.739,-11.44 -6.012,-18.51 15.746,11.44 15.746,-11.44 -6.012,18.51 15.743,11.44 h -19.461 l -6.016,18.51 -6.012,-18.51 h -19.461" /><path
             id="path98"
             style="fill:#ffffff;fill-opacity:1;fill-rule:nonzero;stroke:none"
             d="m 1189.78,1478.16 15.43,-11.21 -5.89,-18.13 15.43,11.21 15.42,-11.21 -5.89,18.13 15.43,11.21 h -19.07 l -5.89,18.14 -5.9,-18.14 h -19.07" /><path
             id="path100"
             style="fill:#ffffff;fill-opacity:1;fill-rule:nonzero;stroke:none"
             d="m 1088.92,1254.17 14.23,-10.34 -5.43,-16.73 14.23,10.34 14.23,-10.34 -5.44,16.73 14.23,10.34 h -17.59 l -5.43,16.72 -5.44,-16.72 h -17.59" /><path
             id="path102"
             style="fill:#ffffff;fill-opacity:1;fill-rule:nonzero;stroke:none"
             d="m 1067.77,1175.69 13.07,-9.5 -4.99,-15.37 13.08,9.5 13.07,-9.5 -5,15.37 13.08,9.5 h -16.16 l -4.99,15.37 -4.93,-15.37 h -16.23" /><path
             id="path104"
             style="fill:#ffffff;fill-opacity:1;fill-rule:nonzero;stroke:none"
             d="m 1169.05,1115.96 18.9,-13.73 -7.22,-22.22 18.89,13.73 18.89,-13.73 -7.22,22.22 18.9,13.73 h -23.35 l -7.22,22.2 -7.22,-22.2 h -23.35" /><path
             id="path106"
             style="fill:#ffffff;fill-opacity:1;fill-rule:nonzero;stroke:none"
             d="m 1474.32,1385.19 15.87,-11.52 -6.06,-18.67 15.87,11.54 15.88,-11.54 -6.07,18.67 15.87,11.52 h -19.7 l -5.98,18.65 -6.06,-18.65 h -19.62" /><path
             id="path108"
             style="fill:#ffffff;fill-opacity:1;fill-rule:nonzero;stroke:none"
             d="m 1403.04,1317.64 13.08,-9.49 -4.99,-15.37 13.04,9.52 13.1,-9.52 -4.99,15.37 13.07,9.49 h -16.16 l -4.99,15.37 -5,-15.37 h -16.16" /><path
             id="path110"
             style="fill:#ffffff;fill-opacity:1;fill-rule:nonzero;stroke:none"
             d="m 1448.87,1265.93 7.95,-5.78 -3.03,-9.35 7.95,5.78 7.95,-5.78 -3.04,9.35 7.96,5.78 h -9.84 l -3.03,9.34 -3.04,-9.34 h -9.83" /><path
             id="path112"
             style="fill:#ffffff;fill-opacity:1;fill-rule:nonzero;stroke:none"
             d="m 1561.01,1319.64 15.87,-11.52 -6.07,-18.66 15.87,11.53 15.88,-11.53 -6.07,18.66 15.87,11.52 h -19.61 l -6.07,18.66 -5.97,-18.66 h -19.7" /><path
             id="path114"
             style="fill:#ffffff;fill-opacity:1;fill-rule:nonzero;stroke:none"
             d="m 1469.43,1169.84 18.9,-13.73 -7.22,-22.21 18.89,13.73 18.89,-13.73 -7.22,22.21 18.9,13.73 h -23.35 l -7.22,22.21 -7.11,-22.21 h -23.46" /><path
             id="path116"
             style="fill:#ffffff;fill-opacity:1;fill-rule:nonzero;stroke:none"
             d="m 1489.72,916.48 6.06,-4.402 -2.31,-7.129 6.06,4.41 6.06,-4.41 -2.32,7.129 6.06,4.402 h -7.49 l -2.31,7.122 -2.29,-7.122 h -7.52" /><path
             id="path118"
             style="fill:#ffffff;fill-opacity:1;fill-rule:nonzero;stroke:none"
             d="m 1643.97,1085.89 13.07,-9.5 -4.99,-15.37 13.08,9.49 13.07,-9.49 -5,15.37 13.08,9.5 h -16.16 l -4.99,15.36 -4.93,-15.36 h -16.23" /><path
             id="path120"
             style="fill:#ffffff;fill-opacity:1;fill-rule:nonzero;stroke:none"
             d="m 1698.5,1003.56 15.87,-11.529 -6.06,-18.66 15.87,11.539 15.87,-11.539 -6.06,18.66 15.87,11.529 h -19.62 l -6.06,18.65 -6.06,-18.65 h -19.62" /><path
             id="path122"
             style="fill:#ffffff;fill-opacity:1;fill-rule:nonzero;stroke:none"
             d="m 1797.17,1059.35 13.08,9.49 h -16.16 l -4.99,15.37 -4.93,-15.37 h -16.23 l 13.07,-9.5 -4.99,-15.37 13.08,9.5 13.07,-9.5 -5,15.38" /><path
             id="path124"
             style="fill:#ffffff;fill-opacity:1;fill-rule:nonzero;stroke:none"
             d="m 1851.34,1093.74 13.08,-9.5 -4.99,-15.37 13.07,9.5 13.07,-9.5 -4.99,15.37 13.07,9.5 h -16.16 l -4.99,15.37 -5,-15.37 h -16.16" /><path
             id="path126"
             style="fill:#ffffff;fill-opacity:1;fill-rule:nonzero;stroke:none"
             d="m 1848.74,1022.82 15.88,-11.52 -6.07,-18.659 15.87,11.529 15.87,-11.529 -6.06,18.659 15.87,11.52 h -19.62 l -6.06,18.66 -6.06,-18.66 h -19.62" /><path
             id="path128"
             style="fill:#ffffff;fill-opacity:1;fill-rule:nonzero;stroke:none"
             d="m 1855.05,944.488 13.07,-9.5 -4.98,-15.367 13.07,9.5 13.07,-9.5 -5,15.367 13.08,9.5 h -16.23 l -4.92,15.371 -4.92,-15.371 h -16.24" /><path
             id="path130"
             style="fill:#ffffff;fill-opacity:1;fill-rule:nonzero;stroke:none"
             d="m 1929.7,1080.32 13.08,-9.49 -4.99,-15.38 13.07,9.5 13.08,-9.5 -5,15.38 13.08,9.49 h -16.16 l -5,15.37 -4.99,-15.37 h -16.17" /><path
             id="path132"
             style="fill:#ffffff;fill-opacity:1;fill-rule:nonzero;stroke:none"
             d="m 1985.21,1119.18 15.87,-11.53 -6.07,-18.66 15.87,11.53 15.88,-11.53 -6.07,18.66 15.87,11.53 h -19.61 l -6.07,18.65 -5.97,-18.65 -19.25,0.09" /><path
             id="path134"
             style="fill:#ffffff;fill-opacity:1;fill-rule:nonzero;stroke:none"
             d="m 2030.28,1177.69 15.87,-11.53 -6.06,-18.66 15.87,11.54 15.87,-11.54 -6.07,18.66 15.88,11.53 h -19.62 l -6.07,18.65 -6.06,-18.65 h -19.61" /><path
             id="path136"
             style="fill:#ffffff;fill-opacity:1;fill-rule:nonzero;stroke:none"
             d="m 1994.81,1247.22 18.9,-13.73 -7.22,-22.21 18.89,13.73 18.9,-13.73 -7.22,22.21 18.89,13.73 h -23.35 l -7.22,22.21 -7.21,-22.21 h -23.36" /><path
             id="path138"
             style="fill:#ffffff;fill-opacity:1;fill-rule:nonzero;stroke:none"
             d="m 2109.25,1235.9 13.07,-9.5 -4.99,-15.37 13.07,9.5 13.08,-9.5 -5,15.37 13.08,9.5 h -16.16 l -4.99,15.37 -4.93,-15.37 h -16.23" /></g></g></g></g></svg>